# xmcd
#
# Track frame offsets: 
#        225
#        15683
#        34361
#        51691
#        70632
#        87378
#        104488
#        117940
#        137949
#        154415
#        175277
#
# Disc length: 2592 seconds
#
# Revision: 1
# Processed by: cddbd v1.5.2PL0 Copyright (c) Steve Scherf et al.
# Submitted via: ExactAudioCopy v1.0b1
#
DISCID=a30a1d0b
DTITLE=Delta Moon - Goin' Down South
DYEAR=2004
DGENRE=Blues
TTITLE0=That's It
TTITLE1=I Want To Go
TTITLE2=Dreams Come Real
TTITLE3=Stone Cold Man
TTITLE4=Goin' Down South
TTITLE5=Poplar Grove
TTITLE6=All She Wrote
TTITLE7=Nightclubbing
TTITLE8=Shake Somethin' Loose
TTITLE9=I'll Die Trying
TTITLE10=Nobody Knows
EXTD=
EXTT0=
EXTT1=
EXTT2=
EXTT3=
EXTT4=
EXTT5=
EXTT6=
EXTT7=
EXTT8=
EXTT9=
EXTT10=
PLAYORDER=
